ply
format ascii 1.0
element vertex 892
property float x
property float y
property float z
end_header
-0.025184 0.021421 0.071356
-0.048938 0.050463 0.113626
-0.006547 0.020149 0.048924
-0.014559 0.014716 0.061974
-0.010692 0.016210 0.055282
-0.054877 0.058479 0.128547
-0.054877 0.058479 0.128547
-0.013953 0.018826 0.063161
0.009042 0.011948 0.029894
0.009042 0.011948 0.029894
-0.048938 0.050463 0.113626
0.007957 0.008168 0.031738
-0.016622 0.014068 0.064882
-0.012623 0.017264 0.058046
-0.013568 0.018390 0.037462
-0.035436 0.058693 0.092051
-0.017600 0.025207 0.049540
-0.019619 0.032735 0.059922
-0.017113 0.025627 0.054373
-0.009069 0.013481 0.031372
-0.016357 0.024295 0.049526
-0.014649 0.020407 0.044505
-0.016687 0.026124 0.051286
-0.015404 0.023264 0.046367
-0.018905 0.007376 0.040148
-0.014181 0.002784 0.035693
-0.022073 0.002025 0.044425
-0.022596 -0.000686 0.042197
-0.021309 -0.003433 0.052874
-0.023893 -0.001918 0.046268
-0.021659 0.008097 0.040194
-0.017338 0.010829 0.031304
-0.018899 -0.006766 0.065288
-0.015337 0.004180 0.024107
-0.014447 0.003482 0.043602
-0.017170 -0.002326 0.051236
-0.012349 0.008079 0.027644
-0.018446 0.001541 0.039900
-0.025652 -0.003865 0.048591
-0.015946 0.003468 0.031010
-0.000117 -0.000052 0.000245
-0.010673 0.008137 0.019864
-0.000699 0.001273 0.003242
-0.000041 0.000063 0.000133
-0.000053 0.001113 0.006108
-0.000801 0.005832 0.013134
-0.013797 0.006606 0.022855
-0.000094 0.000239 0.001286
-0.024281 0.023322 0.042627
-0.014642 0.014840 0.027860
-0.025938 0.025360 0.044742
-0.025055 0.022333 0.041453
-0.025701 0.025152 0.044360
-0.021129 0.018234 0.034917
-0.025302 0.023554 0.042624
-0.024232 0.021701 0.040929
-0.024768 0.024007 0.044346
-0.044766 0.055282 0.085880
-0.024471 0.014360 0.034526
-0.118244 0.126429 0.205338
-0.007809 -0.001753 0.053907
-0.007809 -0.001753 0.053907
-0.006638 -0.001471 0.054828
-0.007390 -0.001247 0.060590
-0.000589 0.000028 0.001194
-0.010237 -0.002910 0.020224
-0.002589 0.001298 0.004153
-0.006638 -0.001471 0.054828
-0.028103 0.003864 0.082582
-0.002595 0.000322 0.004083
-0.002272 -0.001058 0.010083
-0.009238 -0.004834 0.027061
-0.000952 -0.002858 0.002550
-0.000031 0.000007 0.000047
-0.122654 0.115450 0.293410
-0.000031 0.000007 0.000047
-0.050861 0.071172 0.254254
-0.000369 0.001112 0.002022
0.001741 0.004867 0.016860
-0.005865 0.006058 0.013762
-0.019614 0.018271 0.046255
-0.018266 0.013132 0.034347
-0.018398 0.015847 0.054408
-0.020022 0.017076 0.044296
-0.019586 0.016601 0.052091
-0.019702 0.015509 0.056863
-0.018798 0.016755 0.049672
-0.013737 0.012666 0.031049
-0.019254 0.017227 0.048861
-0.023058 0.007158 0.113101
-0.019310 0.017364 0.048491
-0.012560 0.015695 0.027739
-0.019178 0.016842 0.050818
-0.019403 0.016882 0.049538
-0.017789 0.016905 0.045411
-0.004758 0.010172 0.019009
0.003978 0.005149 0.002003
-0.016644 0.030414 0.066338
-0.000248 -0.000068 0.000616
-0.001280 0.014742 0.026912
-0.000296 -0.000143 0.000932
-0.015531 0.018342 0.047824
-0.008567 0.019517 0.039134
-0.009720 0.019184 0.037748
-0.008878 0.019361 0.038696
-0.010975 0.024196 0.035745
-0.012281 0.025374 0.033953
0.001458 0.033941 0.036926
0.001458 0.033941 0.036926
-0.011413 0.018296 0.035379
0.004796 0.029738 0.034520
-0.008163 0.019323 0.037164
0.003044 0.033087 0.036545
0.000329 0.032631 0.035857
-0.008306 0.017619 0.035317
-0.011720 0.021483 0.034934
0.004796 0.029738 0.034520
-0.012642 0.029291 0.035119
-0.009656 0.019526 0.036855
-0.011259 0.020366 0.035540
-0.011259 0.020366 0.035540
-0.009402 0.019612 0.038589
-0.012290 0.027255 0.033648
-0.011910 0.028133 0.033317
-0.032082 0.037813 0.080357
-0.020846 0.024460 0.060086
-0.021950 0.023484 0.059387
-0.018141 0.021720 0.055043
-0.021095 0.024535 0.060140
-0.052568 0.054652 0.148198
-0.022497 0.021013 0.057721
-0.021796 0.024464 0.059056
-0.078826 0.107915 0.135142
-0.067260 0.085083 0.106789
-0.124167 0.118250 0.300000
0.003003 0.006301 0.021275
-0.001080 0.019919 0.047495
-0.001519 0.019677 0.046174
-0.075210 0.009117 0.126955
-0.034032 0.048657 0.078438
-0.003227 0.008967 0.052466
-0.001628 -0.000009 0.008550
-0.000010 -0.000008 0.000024
-0.000011 -0.000007 0.000043
-0.001464 -0.001198 0.007260
-0.006322 0.005231 0.024591
-0.003913 0.008428 0.015663
-0.007538 0.026087 0.049880
-0.007726 0.022767 0.043226
-0.008638 0.017045 0.034026
-0.007538 0.026087 0.049880
-0.008055 0.022112 0.043017
-0.007538 0.026087 0.049880
-0.008004 0.024332 0.048865
-0.004341 0.014517 0.025531
-0.012547 0.007168 0.018470
-0.012631 0.007011 0.019526
-0.008147 -0.000548 0.014683
-0.015784 -0.004010 0.023831
-0.020449 0.000250 0.053208
-0.019327 0.001168 0.053980
-0.001081 -0.000591 0.000623
-0.023509 0.000494 0.061699
-0.019632 0.001691 0.055484
-0.025689 -0.002245 0.068460
-0.002846 0.000790 0.001354
-0.017431 -0.001081 0.049524
-0.019715 0.000344 0.052169
-0.010495 0.000378 0.017577
-0.016539 0.000411 0.047522
-0.007547 0.019215 0.030888
-0.000638 0.001418 0.002227
-0.000000 0.000000 0.000000
0.000516 0.000388 0.001146
-0.001044 0.003952 0.007169
-0.006650 0.013085 0.040875
-0.002258 0.006782 0.011615
-0.017202 0.021708 0.078578
-0.007127 0.007534 0.013736
-0.002920 0.003094 0.006462
-0.005066 0.005945 0.010861
-0.003241 0.003262 0.006462
-0.007127 0.007534 0.013736
-0.006873 0.008888 0.012628
-0.005718 0.007675 0.012573
-0.005964 0.007947 0.012206
-0.008376 0.011212 0.015609
-0.006324 0.008526 0.012136
-0.010457 0.014087 0.020046
-0.009040 0.013565 0.018530
-0.006589 0.007934 0.012344
-0.003933 0.003964 0.007805
-0.014599 0.018958 0.027743
-0.024967 0.023245 0.040138
-0.012384 0.011734 0.021907
-0.018611 0.017392 0.031247
-0.029412 0.024724 0.050395
-0.001193 0.000608 0.001665
-0.030355 0.025475 0.050132
-0.018611 0.017392 0.031247
-0.031979 0.029628 0.060431
-0.029164 0.025413 0.051126
-0.011543 0.009294 0.018088
-0.031341 0.026677 0.052897
-0.020998 0.019063 0.036187
-0.000618 0.000560 0.001084
-0.029122 0.025167 0.050454
-0.004486 0.005658 0.008949
-0.030649 0.025753 0.051496
-0.028195 0.023453 0.046928
-0.058167 0.211780 0.240652
-0.090557 0.114562 0.294080
-0.029602 0.139537 0.194586
-0.000004 0.000008 0.000050
0.002770 0.007917 0.018860
-0.021707 0.040827 0.052164
-0.017834 0.035962 0.043447
-0.017082 0.034749 0.042413
-0.016253 0.033589 0.041409
-0.018412 0.036263 0.044180
-0.014797 0.033038 0.040070
-0.013859 0.031043 0.037103
-0.014425 0.031200 0.037229
-0.009670 0.021091 0.035642
-0.015971 0.032980 0.040670
-0.016299 0.034059 0.041121
-0.003244 0.002282 0.008015
-0.008124 0.005243 0.021603
-0.000982 0.000213 0.002005
-0.001197 0.000855 0.001911
-0.000032 0.001353 0.027817
0.002239 0.011842 0.015692
0.002116 0.037350 0.095962
-0.015971 0.022403 0.045853
0.002239 0.011842 0.015692
-0.014701 0.022895 0.053485
-0.015618 0.022429 0.049477
-0.014831 0.023671 0.051406
-0.015138 0.023012 0.050239
-0.016059 0.025388 0.052116
-0.011434 0.022971 0.033407
-0.014136 0.020428 0.044324
-0.015706 0.024534 0.051918
-0.014038 0.022348 0.045072
-0.015907 0.024232 0.050657
-0.015341 0.021837 0.048512
-0.011868 0.001684 0.024078
-0.001044 0.005424 0.011755
-0.001044 0.005424 0.011755
-0.009458 -0.005491 0.039701
-0.012936 0.001844 0.022313
-0.014251 -0.000815 0.027643
-0.008027 -0.004574 0.038614
-0.012907 0.000232 0.023932
-0.013833 -0.000281 0.027341
0.000476 0.000663 0.003113
0.000625 0.002442 0.004212
-0.009860 0.006594 0.013428
-0.012814 0.001427 0.025069
-0.000511 0.002721 0.005895
-0.022925 0.040544 0.085276
-0.022661 0.041186 0.087343
-0.026637 0.054930 0.074560
-0.021776 0.041125 0.098607
-0.023377 0.035393 0.072509
-0.025772 0.050125 0.073860
-0.023628 0.041173 0.075148
0.013359 0.115697 0.130216
-0.022365 0.048989 0.100420
-0.015969 0.030362 0.057803
-0.025882 0.056170 0.085505
-0.022837 0.041971 0.086433
0.006334 0.006622 0.017812
0.003515 0.007530 0.015088
-0.016066 0.012900 0.032838
-0.017701 0.016700 0.053303
-0.007841 -0.000503 0.020202
-0.036267 0.035588 0.091660
-0.023593 0.022288 0.063818
-0.022162 0.023020 0.066351
-0.023518 0.022333 0.063394
-0.018803 -0.000692 0.032929
-0.016059 0.013649 0.042592
-0.018620 0.017909 0.052148
-0.015961 0.014238 0.039011
-0.018116 0.016759 0.051520
-0.016464 0.016963 0.054596
-0.025883 -0.005682 0.041564
-0.050999 0.045690 0.082667
-0.008721 0.010732 0.028755
-0.020248 -0.001867 0.020493
0.003626 -0.005317 0.000231
-0.011910 0.011740 0.043227
-0.003234 0.005514 0.007654
-0.003234 0.005514 0.007654
-0.005337 0.000282 0.001542
-0.008080 0.008839 0.020569
-0.007058 0.010205 0.055403
-0.017634 0.015507 0.058774
-0.015126 -0.003728 0.081263
-0.009858 -0.001627 0.015353
-0.022905 0.007652 0.045113
-0.000433 -0.000740 0.004025
-0.008860 0.008382 0.017595
-0.000767 0.000567 0.006727
-0.008251 -0.001238 0.019940
-0.022861 -0.000687 0.051771
-0.027400 0.013077 0.066111
-0.017511 0.007452 0.064458
-0.018765 0.008540 0.071687
-0.021284 -0.001719 0.084177
-0.015365 0.002018 0.037333
-0.020952 0.009503 0.061634
-0.048024 0.031979 0.116585
-0.006407 0.016587 0.021958
-0.002974 -0.003762 0.021965
-0.002991 0.000902 0.011948
-0.007296 -0.004250 0.024352
-0.007069 0.019564 0.029984
-0.001767 0.000133 0.006049
-0.011585 0.001071 0.021569
-0.007353 -0.000030 0.030355
-0.012779 0.000253 0.020044
-0.001388 0.000554 0.004952
-0.006109 0.006068 0.031147
-0.008593 0.013042 0.031601
-0.009725 0.010289 0.019287
-0.006708 0.012614 0.018434
-0.015560 0.000986 0.029560
-0.013578 0.006197 0.051731
-0.004649 -0.002105 0.012087
-0.013153 0.001299 0.017598
-0.013775 0.009725 0.022598
-0.012855 0.006823 0.060659
-0.012855 0.006823 0.060659
-0.011824 0.005700 0.012809
-0.008523 0.000723 0.032268
-0.005486 -0.000338 0.009733
-0.010729 0.005312 0.027376
-0.013391 0.008355 0.035259
-0.010414 0.000051 0.015048
-0.010522 0.012125 0.024710
-0.010522 0.012125 0.024710
-0.047092 -0.005723 0.092946
-0.029001 0.002689 0.047135
-0.005867 0.000967 0.004731
-0.020666 0.008464 0.035585
-0.032493 0.002945 0.052663
-0.000000 0.000000 0.000000
-0.032925 0.001928 0.053139
-0.036147 0.000157 0.058489
-0.000000 -0.000000 0.000000
-0.023731 0.024215 0.049094
-0.016162 0.006147 0.025546
-0.001941 0.010879 0.011627
0.000726 0.003333 0.006004
0.000456 0.003129 0.004778
-0.022269 0.020746 0.041252
-0.022940 0.023913 0.048324
-0.024868 0.028768 0.049019
-0.022281 0.023506 0.046651
-0.022281 0.023506 0.046651
-0.000117 -0.000279 0.001602
-0.017916 -0.001217 0.029299
-0.011475 -0.010296 0.113716
-0.035243 0.001216 0.139999
-0.012877 0.002632 0.021094
-0.177397 -0.024304 0.255190
-0.015444 0.004696 0.024103
-0.013296 0.003665 0.032381
-0.013793 0.009219 0.033589
-0.023613 -0.007528 0.044801
-0.011039 0.000792 0.020727
-0.011885 0.012154 0.026938
-0.012568 0.007726 0.034283
-0.012429 0.008852 0.033310
-0.014857 0.007843 0.032164
-0.008561 0.015409 0.030503
-0.004430 0.011603 0.023917
-0.011800 0.007587 0.028273
0.000017 0.000734 0.015182
-0.006726 0.008306 0.027050
-0.009942 0.009658 0.027359
-0.017030 -0.004036 0.042282
-0.003571 0.000435 0.014301
0.000303 0.000797 0.001438
-0.000251 -0.000069 0.000592
-0.004132 -0.001360 0.022754
-0.001866 0.001121 0.002984
-0.001946 0.001748 0.002775
-0.014189 0.008871 0.044226
-0.008540 0.020310 0.035835
-0.000711 -0.000575 0.005676
-0.000780 0.001531 0.002671
-0.000375 0.000384 0.000932
-0.000967 0.001077 0.003136
-0.005653 0.000660 0.017443
-0.005653 0.000660 0.017443
-0.022824 0.034272 0.056145
-0.022824 0.034272 0.056145
-0.022824 0.034272 0.056145
-0.022824 0.034272 0.056145
-0.019599 0.015425 0.052013
-0.019352 0.015202 0.052012
-0.019660 0.016507 0.052961
-0.019604 0.015258 0.051926
-0.018973 0.015899 0.051938
-0.018726 0.014809 0.052131
-0.020452 0.015924 0.051725
-0.019896 0.016730 0.053010
-0.019460 0.014903 0.051908
-0.019896 0.016730 0.053010
-0.018480 0.015902 0.052919
-0.018865 0.016694 0.053690
-0.018698 0.016462 0.053531
-0.020449 0.015923 0.051733
-0.018627 0.015909 0.051662
-0.018617 0.015884 0.051796
-0.018460 0.014768 0.052531
-0.000251 0.015632 0.036959
0.002212 0.024434 0.058906
0.000647 0.011475 0.027278
-0.011226 0.006459 0.036036
-0.007681 0.019084 0.034971
-0.013143 0.011208 0.021451
0.000247 0.010272 0.024309
0.007443 0.020011 0.072511
-0.001643 0.021985 0.052351
-0.001635 0.021870 0.052068
-0.014039 0.009678 0.036993
-0.011299 0.002323 0.033552
-0.015439 0.009983 0.033996
-0.008631 0.006161 0.022017
-0.018699 0.013937 0.042991
-0.000700 0.000650 0.004852
-0.005494 0.003676 0.014314
-0.042237 0.038534 0.065226
-0.023716 0.021230 0.049377
-0.016017 0.012114 0.035133
-0.012750 0.008157 0.030078
-0.004625 0.002347 0.019344
-0.023697 0.020310 0.048942
-0.002478 -0.001831 0.011671
-0.009615 -0.000140 0.006366
-0.019193 0.012852 0.037063
-0.007742 0.001048 0.021908
-0.025184 0.021421 0.071356
-0.048938 0.050463 0.113626
-0.006547 0.020149 0.048924
-0.014559 0.014716 0.061974
-0.010692 0.016210 0.055282
-0.054877 0.058479 0.128547
-0.054877 0.058479 0.128547
-0.013953 0.018826 0.063161
0.009042 0.011948 0.029894
0.009042 0.011948 0.029894
-0.048938 0.050463 0.113626
0.007957 0.008168 0.031738
-0.016622 0.014068 0.064882
-0.012623 0.017264 0.058046
-0.013568 0.018390 0.037462
-0.035436 0.058693 0.092051
-0.017600 0.025207 0.049540
-0.019619 0.032735 0.059922
-0.017113 0.025627 0.054373
-0.009069 0.013481 0.031372
-0.016357 0.024295 0.049526
-0.014649 0.020407 0.044505
-0.016687 0.026124 0.051286
-0.015404 0.023264 0.046367
-0.018905 0.007376 0.040148
-0.014181 0.002784 0.035693
-0.022073 0.002025 0.044425
-0.022596 -0.000686 0.042197
-0.021309 -0.003433 0.052874
-0.023893 -0.001918 0.046268
-0.021659 0.008097 0.040194
-0.017338 0.010829 0.031304
-0.018899 -0.006766 0.065288
-0.015337 0.004180 0.024107
-0.014447 0.003482 0.043602
-0.017170 -0.002326 0.051236
-0.012349 0.008079 0.027644
-0.018446 0.001541 0.039900
-0.025652 -0.003865 0.048591
-0.015946 0.003468 0.031010
-0.000117 -0.000052 0.000245
-0.010673 0.008137 0.019864
-0.000699 0.001273 0.003242
-0.000041 0.000063 0.000133
-0.000053 0.001113 0.006108
-0.000801 0.005832 0.013134
-0.013797 0.006606 0.022855
-0.000094 0.000239 0.001286
-0.024281 0.023322 0.042627
-0.014642 0.014840 0.027860
-0.025938 0.025360 0.044742
-0.025055 0.022333 0.041453
-0.025701 0.025152 0.044360
-0.021129 0.018234 0.034917
-0.025302 0.023554 0.042624
-0.024232 0.021701 0.040929
-0.024768 0.024007 0.044346
-0.044766 0.055282 0.085880
-0.024471 0.014360 0.034526
-0.118244 0.126429 0.205338
-0.007809 -0.001753 0.053907
-0.007809 -0.001753 0.053907
-0.006638 -0.001471 0.054828
-0.007390 -0.001247 0.060590
-0.000589 0.000028 0.001194
-0.010237 -0.002910 0.020224
-0.002589 0.001298 0.004153
-0.006638 -0.001471 0.054828
-0.028103 0.003864 0.082582
-0.002595 0.000322 0.004083
-0.002272 -0.001058 0.010083
-0.009238 -0.004834 0.027061
-0.000952 -0.002858 0.002550
-0.000031 0.000007 0.000047
-0.122654 0.115450 0.293410
-0.000031 0.000007 0.000047
-0.050861 0.071172 0.254254
-0.000369 0.001112 0.002022
0.001741 0.004867 0.016860
-0.005865 0.006058 0.013762
-0.019614 0.018271 0.046255
-0.018266 0.013132 0.034347
-0.018398 0.015847 0.054408
-0.020022 0.017076 0.044296
-0.019586 0.016601 0.052091
-0.019702 0.015509 0.056863
-0.018798 0.016755 0.049672
-0.013737 0.012666 0.031049
-0.019254 0.017227 0.048861
-0.023058 0.007158 0.113101
-0.019310 0.017364 0.048491
-0.012560 0.015695 0.027739
-0.019178 0.016842 0.050818
-0.019403 0.016882 0.049538
-0.017789 0.016905 0.045411
-0.004758 0.010172 0.019009
0.003978 0.005149 0.002003
-0.016644 0.030414 0.066338
-0.000248 -0.000068 0.000616
-0.001280 0.014742 0.026912
-0.000296 -0.000143 0.000932
-0.015531 0.018342 0.047824
-0.008567 0.019517 0.039134
-0.009720 0.019184 0.037748
-0.008878 0.019361 0.038696
-0.010975 0.024196 0.035745
-0.012281 0.025374 0.033953
0.001458 0.033941 0.036926
0.001458 0.033941 0.036926
-0.011413 0.018296 0.035379
0.004796 0.029738 0.034520
-0.008163 0.019323 0.037164
0.003044 0.033087 0.036545
0.000329 0.032631 0.035857
-0.008306 0.017619 0.035317
-0.011720 0.021483 0.034934
0.004796 0.029738 0.034520
-0.012642 0.029291 0.035119
-0.009656 0.019526 0.036855
-0.011259 0.020366 0.035540
-0.011259 0.020366 0.035540
-0.009402 0.019612 0.038589
-0.012290 0.027255 0.033648
-0.011910 0.028133 0.033317
-0.032082 0.037813 0.080357
-0.020846 0.024460 0.060086
-0.021950 0.023484 0.059387
-0.018141 0.021720 0.055043
-0.021095 0.024535 0.060140
-0.052568 0.054652 0.148198
-0.022497 0.021013 0.057721
-0.021796 0.024464 0.059056
-0.078826 0.107915 0.135142
-0.067260 0.085083 0.106789
-0.124167 0.118250 0.300000
0.003003 0.006301 0.021275
-0.001080 0.019919 0.047495
-0.001519 0.019677 0.046174
-0.075210 0.009117 0.126955
-0.034032 0.048657 0.078438
-0.003227 0.008967 0.052466
-0.001628 -0.000009 0.008550
-0.000010 -0.000008 0.000024
-0.000011 -0.000007 0.000043
-0.001464 -0.001198 0.007260
-0.006322 0.005231 0.024591
-0.003913 0.008428 0.015663
-0.007538 0.026087 0.049880
-0.007726 0.022767 0.043226
-0.008638 0.017045 0.034026
-0.007538 0.026087 0.049880
-0.008055 0.022112 0.043017
-0.007538 0.026087 0.049880
-0.008004 0.024332 0.048865
-0.004341 0.014517 0.025531
-0.012547 0.007168 0.018470
-0.012631 0.007011 0.019526
-0.008147 -0.000548 0.014683
-0.015784 -0.004010 0.023831
-0.020449 0.000250 0.053208
-0.019327 0.001168 0.053980
-0.001081 -0.000591 0.000623
-0.023509 0.000494 0.061699
-0.019632 0.001691 0.055484
-0.025689 -0.002245 0.068460
-0.002846 0.000790 0.001354
-0.017431 -0.001081 0.049524
-0.019715 0.000344 0.052169
-0.010495 0.000378 0.017577
-0.016539 0.000411 0.047522
-0.007547 0.019215 0.030888
-0.000638 0.001418 0.002227
-0.000000 0.000000 0.000000
0.000516 0.000388 0.001146
-0.001044 0.003952 0.007169
-0.006650 0.013085 0.040875
-0.002258 0.006782 0.011615
-0.017202 0.021708 0.078578
-0.007127 0.007534 0.013736
-0.002920 0.003094 0.006462
-0.005066 0.005945 0.010861
-0.003241 0.003262 0.006462
-0.007127 0.007534 0.013736
-0.006873 0.008888 0.012628
-0.005718 0.007675 0.012573
-0.005964 0.007947 0.012206
-0.008376 0.011212 0.015609
-0.006324 0.008526 0.012136
-0.010457 0.014087 0.020046
-0.009040 0.013565 0.018530
-0.006589 0.007934 0.012344
-0.003933 0.003964 0.007805
-0.014599 0.018958 0.027743
-0.024967 0.023245 0.040138
-0.012384 0.011734 0.021907
-0.018611 0.017392 0.031247
-0.029412 0.024724 0.050395
-0.001193 0.000608 0.001665
-0.030355 0.025475 0.050132
-0.018611 0.017392 0.031247
-0.031979 0.029628 0.060431
-0.029164 0.025413 0.051126
-0.011543 0.009294 0.018088
-0.031341 0.026677 0.052897
-0.020998 0.019063 0.036187
-0.000618 0.000560 0.001084
-0.029122 0.025167 0.050454
-0.004486 0.005658 0.008949
-0.030649 0.025753 0.051496
-0.028195 0.023453 0.046928
-0.058167 0.211780 0.240652
-0.090557 0.114562 0.294080
-0.029602 0.139537 0.194586
-0.000004 0.000008 0.000050
0.002770 0.007917 0.018860
-0.021707 0.040827 0.052164
-0.017834 0.035962 0.043447
-0.017082 0.034749 0.042413
-0.016253 0.033589 0.041409
-0.018412 0.036263 0.044180
-0.014797 0.033038 0.040070
-0.013859 0.031043 0.037103
-0.014425 0.031200 0.037229
-0.009670 0.021091 0.035642
-0.015971 0.032980 0.040670
-0.016299 0.034059 0.041121
-0.003244 0.002282 0.008015
-0.008124 0.005243 0.021603
-0.000982 0.000213 0.002005
-0.001197 0.000855 0.001911
-0.000032 0.001353 0.027817
0.002239 0.011842 0.015692
0.002116 0.037350 0.095962
-0.015971 0.022403 0.045853
0.002239 0.011842 0.015692
-0.014701 0.022895 0.053485
-0.015618 0.022429 0.049477
-0.014831 0.023671 0.051406
-0.015138 0.023012 0.050239
-0.016059 0.025388 0.052116
-0.011434 0.022971 0.033407
-0.014136 0.020428 0.044324
-0.015706 0.024534 0.051918
-0.014038 0.022348 0.045072
-0.015907 0.024232 0.050657
-0.015341 0.021837 0.048512
-0.011868 0.001684 0.024078
-0.001044 0.005424 0.011755
-0.001044 0.005424 0.011755
-0.009458 -0.005491 0.039701
-0.012936 0.001844 0.022313
-0.014251 -0.000815 0.027643
-0.008027 -0.004574 0.038614
-0.012907 0.000232 0.023932
-0.013833 -0.000281 0.027341
0.000476 0.000663 0.003113
0.000625 0.002442 0.004212
-0.009860 0.006594 0.013428
-0.012814 0.001427 0.025069
-0.000511 0.002721 0.005895
-0.022925 0.040544 0.085276
-0.022661 0.041186 0.087343
-0.026637 0.054930 0.074560
-0.021776 0.041125 0.098607
-0.023377 0.035393 0.072509
-0.025772 0.050125 0.073860
-0.023628 0.041173 0.075148
0.013359 0.115697 0.130216
-0.022365 0.048989 0.100420
-0.015969 0.030362 0.057803
-0.025882 0.056170 0.085505
-0.022837 0.041971 0.086433
0.006334 0.006622 0.017812
0.003515 0.007530 0.015088
-0.016066 0.012900 0.032838
-0.017701 0.016700 0.053303
-0.007841 -0.000503 0.020202
-0.036267 0.035588 0.091660
-0.023593 0.022288 0.063818
-0.022162 0.023020 0.066351
-0.023518 0.022333 0.063394
-0.018803 -0.000692 0.032929
-0.016059 0.013649 0.042592
-0.018620 0.017909 0.052148
-0.015961 0.014238 0.039011
-0.018116 0.016759 0.051520
-0.016464 0.016963 0.054596
-0.025883 -0.005682 0.041564
-0.050999 0.045690 0.082667
-0.008721 0.010732 0.028755
-0.020248 -0.001867 0.020493
0.003626 -0.005317 0.000231
-0.011910 0.011740 0.043227
-0.003234 0.005514 0.007654
-0.003234 0.005514 0.007654
-0.005337 0.000282 0.001542
-0.008080 0.008839 0.020569
-0.007058 0.010205 0.055403
-0.017634 0.015507 0.058774
-0.015126 -0.003728 0.081263
-0.009858 -0.001627 0.015353
-0.022905 0.007652 0.045113
-0.000433 -0.000740 0.004025
-0.008860 0.008382 0.017595
-0.000767 0.000567 0.006727
-0.008251 -0.001238 0.019940
-0.022861 -0.000687 0.051771
-0.027400 0.013077 0.066111
-0.017511 0.007452 0.064458
-0.018765 0.008540 0.071687
-0.021284 -0.001719 0.084177
-0.015365 0.002018 0.037333
-0.020952 0.009503 0.061634
-0.048024 0.031979 0.116585
-0.006407 0.016587 0.021958
-0.002974 -0.003762 0.021965
-0.002991 0.000902 0.011948
-0.007296 -0.004250 0.024352
-0.007069 0.019564 0.029984
-0.001767 0.000133 0.006049
-0.011585 0.001071 0.021569
-0.007353 -0.000030 0.030355
-0.012779 0.000253 0.020044
-0.001388 0.000554 0.004952
-0.006109 0.006068 0.031147
-0.008593 0.013042 0.031601
-0.009725 0.010289 0.019287
-0.006708 0.012614 0.018434
-0.015560 0.000986 0.029560
-0.013578 0.006197 0.051731
-0.004649 -0.002105 0.012087
-0.013153 0.001299 0.017598
-0.013775 0.009725 0.022598
-0.012855 0.006823 0.060659
-0.012855 0.006823 0.060659
-0.011824 0.005700 0.012809
-0.008523 0.000723 0.032268
-0.005486 -0.000338 0.009733
-0.010729 0.005312 0.027376
-0.013391 0.008355 0.035259
-0.010414 0.000051 0.015048
-0.010522 0.012125 0.024710
-0.010522 0.012125 0.024710
-0.047092 -0.005723 0.092946
-0.029001 0.002689 0.047135
-0.005867 0.000967 0.004731
-0.020666 0.008464 0.035585
-0.032493 0.002945 0.052663
-0.000000 0.000000 0.000000
-0.032925 0.001928 0.053139
-0.036147 0.000157 0.058489
-0.000000 -0.000000 0.000000
-0.023731 0.024215 0.049094
-0.016162 0.006147 0.025546
-0.001941 0.010879 0.011627
0.000726 0.003333 0.006004
0.000456 0.003129 0.004778
-0.022269 0.020746 0.041252
-0.022940 0.023913 0.048324
-0.024868 0.028768 0.049019
-0.022281 0.023506 0.046651
-0.022281 0.023506 0.046651
-0.000117 -0.000279 0.001602
-0.017916 -0.001217 0.029299
-0.011475 -0.010296 0.113716
-0.035243 0.001216 0.139999
-0.012877 0.002632 0.021094
-0.177397 -0.024304 0.255190
-0.015444 0.004696 0.024103
-0.013296 0.003665 0.032381
-0.013793 0.009219 0.033589
-0.023613 -0.007528 0.044801
-0.011039 0.000792 0.020727
-0.011885 0.012154 0.026938
-0.012568 0.007726 0.034283
-0.012429 0.008852 0.033310
-0.014857 0.007843 0.032164
-0.008561 0.015409 0.030503
-0.004430 0.011603 0.023917
-0.011800 0.007587 0.028273
0.000017 0.000734 0.015182
-0.006726 0.008306 0.027050
-0.009942 0.009658 0.027359
-0.017030 -0.004036 0.042282
-0.003571 0.000435 0.014301
0.000303 0.000797 0.001438
-0.000251 -0.000069 0.000592
-0.004132 -0.001360 0.022754
-0.001866 0.001121 0.002984
-0.001946 0.001748 0.002775
-0.014189 0.008871 0.044226
-0.008540 0.020310 0.035835
-0.000711 -0.000575 0.005676
-0.000780 0.001531 0.002671
-0.000375 0.000384 0.000932
-0.000967 0.001077 0.003136
-0.005653 0.000660 0.017443
-0.005653 0.000660 0.017443
-0.022824 0.034272 0.056145
-0.022824 0.034272 0.056145
-0.022824 0.034272 0.056145
-0.022824 0.034272 0.056145
-0.019599 0.015425 0.052013
-0.019352 0.015202 0.052012
-0.019660 0.016507 0.052961
-0.019604 0.015258 0.051926
-0.018973 0.015899 0.051938
-0.018726 0.014809 0.052131
-0.020452 0.015924 0.051725
-0.019896 0.016730 0.053010
-0.019460 0.014903 0.051908
-0.019896 0.016730 0.053010
-0.018480 0.015902 0.052919
-0.018865 0.016694 0.053690
-0.018698 0.016462 0.053531
-0.020449 0.015923 0.051733
-0.018627 0.015909 0.051662
-0.018617 0.015884 0.051796
-0.018460 0.014768 0.052531
-0.000251 0.015632 0.036959
0.002212 0.024434 0.058906
0.000647 0.011475 0.027278
-0.011226 0.006459 0.036036
-0.007681 0.019084 0.034971
-0.013143 0.011208 0.021451
0.000247 0.010272 0.024309
0.007443 0.020011 0.072511
-0.001643 0.021985 0.052351
-0.001635 0.021870 0.052068
-0.014039 0.009678 0.036993
-0.011299 0.002323 0.033552
-0.015439 0.009983 0.033996
-0.008631 0.006161 0.022017
-0.018699 0.013937 0.042991
-0.000700 0.000650 0.004852
-0.005494 0.003676 0.014314
-0.042237 0.038534 0.065226
-0.023716 0.021230 0.049377
-0.016017 0.012114 0.035133
-0.012750 0.008157 0.030078
-0.004625 0.002347 0.019344
-0.023697 0.020310 0.048942
-0.002478 -0.001831 0.011671
-0.009615 -0.000140 0.006366
-0.019193 0.012852 0.037063
-0.007742 0.001048 0.021908
